<?xml version="1.0" encoding="utf-8"?>
<!-- Generator: Adobe Illustrator 26.3.1, SVG Export Plug-In . SVG Version: 6.00 Build 0)  -->
<svg version="1.1" id="Layer_1" xmlns="http://www.w3.org/2000/svg" xmlns:xlink="http://www.w3.org/1999/xlink" x="0px" y="0px"
	 viewBox="0 0 1366 768" style="enable-background:new 0 0 1366 768;" xml:space="preserve">
<path d="M443.78,336.8c2.63,0.83,5.11,2,7.43,3.5c2.32,1.5,4.32,3.3,6,5.4c1.68,2.1,2.98,4.47,3.88,7.1s1.22,5.54,0.95,8.7
	c-0.23,2.93-0.99,5.71-2.28,8.33c-1.28,2.62-3.02,5.01-5.2,7.18c-2.18,2.17-4.8,4.08-7.85,5.75c-3.05,1.67-6.5,3.03-10.33,4.1
	c-3.04,0.83-6.1,1.45-9.2,1.85c-3.1,0.4-6.17,0.6-9.2,0.6c-3.24,0-6.36-0.22-9.38-0.65c-3.02-0.43-5.8-1.07-8.35-1.9
	c-2.55-0.83-4.81-1.86-6.78-3.08c-1.97-1.22-3.52-2.61-4.65-4.18c-1.67-2.3-3.05-4.8-4.15-7.5s-1.98-5.53-2.65-8.48
	c-0.67-2.95-1.13-5.95-1.4-9c-0.27-3.05-0.4-6.07-0.4-9.05c0-2.98,0.11-5.87,0.33-8.65c0.22-2.78,0.48-5.38,0.78-7.8
	c0.3-2.42,0.62-4.58,0.95-6.5c0.33-1.92,0.63-3.49,0.9-4.73c0.63-3,1.6-5.68,2.9-8.03c1.3-2.35,2.85-4.43,4.65-6.23
	c1.8-1.8,3.79-3.33,5.98-4.58c2.18-1.25,4.44-2.28,6.78-3.08c2.33-0.8,4.71-1.38,7.13-1.75c2.42-0.37,4.76-0.55,7.03-0.55
	c2.27,0,4.63,0.18,7.1,0.55c2.47,0.37,4.91,0.93,7.33,1.68c2.42,0.75,4.75,1.71,7,2.88s4.29,2.55,6.1,4.15
	c1.82,1.6,3.36,3.43,4.63,5.48c1.27,2.05,2.13,4.34,2.6,6.88C454.19,324.86,451.32,332.07,443.78,336.8z M422.77,365.06
	c0.5-0.47,0.98-1.03,1.45-1.68c0.47-0.65,0.67-1.39,0.6-2.23c-0.07-0.9-0.36-1.73-0.88-2.48c-0.52-0.75-1.16-1.38-1.93-1.9
	c-0.77-0.52-1.62-0.93-2.55-1.23c-0.93-0.3-1.85-0.45-2.75-0.45c-1.03,0-1.91,0.5-2.63,1.5c-0.72,1-1.16,2.35-1.33,4.05
	c-0.1,0.77-0.12,1.54-0.05,2.33c0.07,0.78,0.22,1.51,0.45,2.18c0.23,0.67,0.55,1.23,0.95,1.68c0.4,0.45,0.88,0.74,1.45,0.88
	c0.43,0.1,0.95,0.1,1.55,0c0.6-0.1,1.23-0.27,1.9-0.5c0.67-0.23,1.33-0.54,1.98-0.92S422.24,365.5,422.77,365.06z M415.57,317.14
	c-0.47,0.2-0.85,0.6-1.15,1.2s-0.52,1.3-0.65,2.1c-0.13,0.8-0.18,1.64-0.15,2.53c0.03,0.88,0.15,1.71,0.35,2.48
	c0.2,0.7,0.5,1.38,0.9,2.05c0.4,0.67,0.98,1,1.75,1c0.2,0,0.62-0.12,1.28-0.35s1.33-0.59,2.05-1.08c0.72-0.48,1.36-1.11,1.93-1.88
	c0.57-0.77,0.87-1.67,0.9-2.7c0.03-0.97-0.21-1.78-0.73-2.43s-1.06-1.16-1.63-1.53c-0.73-0.47-1.5-0.83-2.3-1.1
	c-0.8-0.27-1.47-0.4-2-0.4C415.95,317.04,415.77,317.08,415.57,317.14z"/>
<path d="M557.59,312.44c0.77,5.04,1.33,9.73,1.7,14.08c0.37,4.35,0.51,8.5,0.43,12.43c-0.08,3.94-0.37,7.73-0.85,11.38
	c-0.48,3.65-1.19,7.31-2.13,10.98c-0.53,2.17-1.28,4.37-2.25,6.6c-0.97,2.23-2.22,4.39-3.75,6.48c-1.53,2.08-3.39,4.05-5.58,5.9
	c-2.18,1.85-4.78,3.46-7.78,4.83c-3,1.37-6.45,2.45-10.33,3.25c-3.89,0.8-8.3,1.2-13.23,1.2c-3.3,0-6.64-0.18-10-0.53
	c-3.37-0.35-6.64-0.95-9.8-1.8c-3.17-0.85-6.18-1.98-9.03-3.38c-2.85-1.4-5.41-3.14-7.68-5.23c-2.27-2.08-4.18-4.56-5.73-7.43
	s-2.63-6.17-3.23-9.9c-1.33-8.44-2.02-16.77-2.05-25.01s0.6-15.96,1.9-23.16c0.47-2.57,1.24-5.02,2.33-7.35
	c1.08-2.33,2.46-4.39,4.13-6.15c1.67-1.77,3.63-3.18,5.88-4.25s4.76-1.6,7.53-1.6c1.8,0.03,3.67,0.38,5.6,1.05
	c1.93,0.67,3.76,1.73,5.48,3.2c1.72,1.47,3.23,3.38,4.53,5.75s2.22,5.25,2.75,8.65c0.77,4.94,1.28,10.44,1.53,16.51
	c0.25,6.07,0.24,12.41-0.02,19.01c-0.07,1.27,0.33,2.35,1.2,3.25c0.87,0.9,1.97,1.38,3.3,1.45c1.37,0,2.5-0.42,3.4-1.28
	s1.35-1.96,1.35-3.33c-0.03-3.2-0.02-6.41,0.05-9.63c0.07-3.22,0.19-6.34,0.38-9.35c0.18-3.02,0.42-5.89,0.7-8.6
	c0.28-2.72,0.63-5.16,1.03-7.33c0.47-2.57,1.24-5.02,2.33-7.35c1.08-2.33,2.46-4.39,4.13-6.15c1.67-1.77,3.63-3.18,5.88-4.25
	s4.76-1.6,7.53-1.6c1.8,0.03,3.68,0.38,5.63,1.05c1.95,0.67,3.78,1.73,5.5,3.2c1.72,1.47,3.23,3.38,4.53,5.75
	C556.14,306.15,557.05,309.04,557.59,312.44z"/>
<path d="M639.25,354.86c1.2,1.43,2.15,3.04,2.85,4.8c0.7,1.77,1.15,3.6,1.35,5.5c0.2,1.9,0.15,3.83-0.15,5.78
	c-0.3,1.95-0.88,3.83-1.75,5.63c-1.93,4.13-4.97,7.33-9.1,9.58c-4.14,2.25-9.04,3.38-14.71,3.38c-0.77,0-1.53,0-2.3,0
	c-0.77,0-1.53,0.02-2.3,0.05h-4.25c-2.77,0-5.44-0.08-8.03-0.25c-2.58-0.17-5.03-0.57-7.33-1.2c-2.3-0.63-4.44-1.56-6.4-2.78
	c-1.97-1.22-3.73-2.86-5.28-4.93c-1.55-2.07-2.87-4.64-3.95-7.73c-1.08-3.08-1.88-6.79-2.38-11.13c-0.27-2.4-0.48-5.09-0.62-8.08
	c-0.15-2.98-0.24-6.1-0.28-9.35c-0.03-3.25-0.02-6.54,0.05-9.85c0.07-3.32,0.17-6.48,0.3-9.48c0.13-3,0.3-5.76,0.5-8.28
	c0.2-2.52,0.42-4.61,0.65-6.28c0.4-2.83,1.21-5.29,2.43-7.35c1.22-2.07,2.67-3.77,4.35-5.1s3.52-2.32,5.5-2.95
	c1.98-0.63,3.96-0.95,5.93-0.95c2.57,0,4.92,0.45,7.05,1.35c2.13,0.9,3.96,2.14,5.48,3.73c1.52,1.58,2.71,3.46,3.58,5.63
	c0.87,2.17,1.32,4.52,1.35,7.05c0.07,3.3,0.01,6.53-0.18,9.68s-0.43,6.12-0.72,8.9c-0.3,2.79-0.63,5.31-0.98,7.58
	c-0.35,2.27-0.64,4.15-0.88,5.65c-0.23,1.37-0.38,2.35-0.45,2.95c-0.13,1.5,0.22,2.6,1.05,3.3c0.97,0.83,2.57,1.25,4.8,1.25
	c1,0,2.12-0.09,3.35-0.27s2.55-0.46,3.95-0.83c1.8-0.47,3.52-0.7,5.15-0.7c2.47,0,4.75,0.48,6.85,1.43S637.68,352.96,639.25,354.86z
	"/>
<path d="M713.14,359.11c1,1.7,1.72,3.6,2.18,5.7c0.45,2.1,0.53,4.25,0.22,6.45c-0.3,2.2-1.04,4.39-2.2,6.58
	c-1.17,2.18-2.87,4.23-5.1,6.13c-2.1,1.8-4.64,3.15-7.61,4.05c-2.97,0.9-6.19,1.35-9.65,1.35c-3.17,0-6.42-0.38-9.75-1.13
	c-3.34-0.75-6.65-1.89-9.96-3.43c-4.17-1.93-7.9-4.29-11.18-7.05c-3.29-2.77-6.06-5.85-8.33-9.25s-4-7.07-5.2-11
	c-1.2-3.93-1.8-8.05-1.8-12.36c0-5.6,0.62-10.69,1.88-15.26c1.25-4.57,2.95-8.67,5.1-12.31c2.15-3.63,4.67-6.82,7.55-9.55
	s5.97-5.06,9.25-6.98c3.29-1.92,6.69-3.44,10.21-4.58c3.52-1.13,6.98-1.92,10.38-2.35c0.67-0.07,1.31-0.12,1.93-0.17
	c0.62-0.05,1.22-0.08,1.83-0.08c4.17,0,7.89,0.89,11.18,2.68s5.91,4.38,7.88,7.78c1.1,1.87,1.9,3.85,2.4,5.95
	c0.5,2.1,0.73,4.2,0.68,6.3c-0.05,2.1-0.39,4.14-1.03,6.1c-0.63,1.97-1.54,3.74-2.7,5.3c-0.47,0.63-1.07,1.31-1.8,2.03
	c-0.73,0.72-1.62,1.38-2.65,1.98c-1.03,0.6-2.22,1.1-3.55,1.5s-2.84,0.6-4.5,0.6c-1.77,0-3.7-0.27-5.8-0.8
	c-1-0.27-1.94-0.45-2.83-0.55c-0.88-0.1-1.71-0.15-2.48-0.15c-1.8,0-3.29,0.22-4.48,0.68c-1.19,0.45-2.09,1.01-2.73,1.68
	c-0.33,0.37-0.55,0.67-0.65,0.92s-0.13,0.41-0.1,0.48c0.07,0.1,0.29,0.2,0.67,0.3c0.38,0.1,0.96,0.15,1.73,0.15
	c0.6,0,1.33-0.05,2.18-0.15c0.85-0.1,1.86-0.28,3.03-0.55c0.4-0.1,0.78-0.17,1.15-0.2c0.37-0.03,0.7-0.05,1-0.05
	c0.97,0,1.82,0.17,2.55,0.5c0.73,0.33,1.35,0.8,1.85,1.4s0.88,1.3,1.12,2.1c0.25,0.8,0.38,1.67,0.38,2.6
	c-0.03,0.9-0.19,1.76-0.47,2.58c-0.28,0.82-0.68,1.53-1.2,2.15s-1.15,1.11-1.9,1.48c-0.75,0.37-1.61,0.55-2.58,0.55
	c-0.6,0-1.17-0.07-1.7-0.2c-1.73-0.4-3.25-0.6-4.55-0.6c-1.63,0-2.6,0.18-2.9,0.55c-0.03,0.17,0.04,0.47,0.22,0.9
	c0.18,0.43,0.54,0.88,1.08,1.35c1.07,0.9,2.5,1.35,4.3,1.35c1.5,0,3.17-0.33,5-1c1.27-0.47,2.48-0.81,3.65-1.03s2.32-0.33,3.45-0.33
	c1.73,0,3.37,0.23,4.9,0.7c1.53,0.47,2.96,1.1,4.28,1.9c1.32,0.8,2.49,1.74,3.53,2.83C711.52,356.72,712.4,357.88,713.14,359.11z"/>
<path d="M783.23,315.46c0.17,1.6,0.33,3.61,0.48,6.03c0.15,2.42,0.28,5.07,0.4,7.95c0.12,2.88,0.19,5.92,0.23,9.1
	c0.03,3.18,0.02,6.34-0.03,9.48c-0.05,3.13-0.16,6.17-0.32,9.1c-0.17,2.93-0.4,5.6-0.7,8c-0.7,5.37-1.78,9.89-3.23,13.56
	c-1.45,3.67-3.49,6.66-6.13,8.98c-2.63,2.32-5.93,4.04-9.88,5.15c-3.95,1.12-8.78,1.83-14.48,2.13c-0.27,0-0.52,0.01-0.75,0.02
	c-0.23,0.02-0.47,0.03-0.7,0.03c-4.14,0-7.78-0.86-10.93-2.58c-3.15-1.72-5.68-4.21-7.58-7.48c-1-1.7-1.75-3.53-2.25-5.48
	c-0.5-1.95-0.76-3.89-0.78-5.83c-0.02-1.93,0.2-3.81,0.65-5.63c0.45-1.82,1.14-3.46,2.08-4.93c1.17-1.83,2.61-3.18,4.33-4.05
	c1.72-0.87,3.61-1.2,5.68-1c0.67,0.07,1.3,0.12,1.9,0.15c0.6,0.03,1.17,0.05,1.7,0.05c3.03,0,5.07-0.52,6.1-1.55
	c0.9-0.9,1.23-2.52,1-4.85c-0.07-0.6-0.22-1.58-0.45-2.95c-0.23-1.5-0.52-3.38-0.85-5.65c-0.33-2.27-0.65-4.79-0.95-7.58
	c-0.3-2.78-0.55-5.75-0.75-8.9c-0.2-3.15-0.27-6.38-0.2-9.68c0.07-2.97,0.62-5.56,1.68-7.78c1.05-2.22,2.41-4.08,4.08-5.58
	c1.67-1.5,3.53-2.63,5.6-3.4c2.07-0.77,4.13-1.2,6.2-1.3h0.7c2.03,0,4.07,0.32,6.1,0.95c2.03,0.63,3.89,1.63,5.58,2.98
	c1.68,1.35,3.11,3.06,4.28,5.13C782.19,310.12,782.93,312.59,783.23,315.46z"/>
<path d="M853.25,341.76c2.2,0.23,4.38,0.77,6.55,1.6c2.17,0.83,4.1,1.95,5.8,3.35c1.7,1.4,3.06,3.07,4.08,5
	c1.02,1.93,1.48,4.15,1.38,6.65c-0.03,1.4-0.19,2.97-0.48,4.7c-0.28,1.73-0.68,3.55-1.2,5.45c-0.52,1.9-1.15,3.82-1.9,5.75
	s-1.6,3.81-2.55,5.63c-0.95,1.82-2,3.51-3.15,5.08c-1.15,1.57-2.39,2.92-3.73,4.05c-2.17,1.87-4.76,3.26-7.78,4.18
	c-3.02,0.92-6.28,1.38-9.78,1.38c-3.07,0-6.21-0.35-9.43-1.05c-3.22-0.7-6.41-1.78-9.58-3.25c-4-1.83-7.58-4.1-10.73-6.8
	c-3.15-2.7-5.83-5.74-8.03-9.1c-2.2-3.37-3.88-7-5.03-10.91c-1.15-3.9-1.73-7.97-1.73-12.21c0-5.37,0.58-10.32,1.73-14.86
	c1.15-4.53,2.72-8.65,4.7-12.36c1.98-3.7,4.34-7,7.08-9.88c2.73-2.88,5.69-5.36,8.88-7.43c3.18-2.07,6.53-3.73,10.03-5
	c3.5-1.27,7.04-2.12,10.6-2.55c0.6-0.07,1.19-0.12,1.78-0.15c0.58-0.03,1.16-0.05,1.73-0.05c3.9,0,7.4,0.81,10.51,2.43
	c3.1,1.62,5.62,3.99,7.55,7.13c1.13,1.83,1.98,3.79,2.55,5.85c0.57,2.07,0.85,4.15,0.85,6.25c0,2.1-0.28,4.16-0.85,6.18
	c-0.57,2.02-1.42,3.86-2.55,5.53c-1.6,2.4-3.59,4.21-5.98,5.43c-2.38,1.22-5.08,1.83-8.08,1.83c-1.17,0-2.38-0.1-3.65-0.3
	c-0.87-0.17-1.68-0.27-2.43-0.33c-0.75-0.05-1.48-0.07-2.18-0.07c-2.94,0-5.29,0.65-7.05,1.95c-1.77,1.3-2.7,3.5-2.8,6.6
	c-0.03,0.9,0.09,1.93,0.38,3.08c0.28,1.15,0.68,2.26,1.18,3.33c0.5,1.07,1.08,2.01,1.73,2.83c0.65,0.82,1.31,1.36,1.98,1.63
	c0.13,0.07,0.48-0.05,1.05-0.35c0.57-0.3,1.1-0.9,1.6-1.8c0.17-0.3,0.25-0.5,0.25-0.6c0-0.1-0.1-0.32-0.3-0.65
	c-0.27-0.4-0.53-0.93-0.8-1.6c-0.27-0.67-0.28-1.52-0.05-2.55c0.3-1.4,0.87-2.67,1.7-3.8c0.83-1.13,1.89-2.1,3.18-2.9
	c1.28-0.8,2.76-1.42,4.43-1.85c1.67-0.43,3.47-0.65,5.4-0.65c0.5,0,1.01,0.02,1.53,0.05S852.69,341.69,853.25,341.76z"/>
</svg>
