<?xml version="1.0" encoding="UTF-8"?><svg id="Layer_1" xmlns="http://www.w3.org/2000/svg" viewBox="0 0 527.4 239.96"><defs><style>.cls-1{font-family:BabyGemoy, 'Baby Gemoy';font-size:100.05px;}.cls-2{letter-spacing:-.01em;}.cls-3{letter-spacing:0em;}</style></defs><text class="cls-1" transform="translate(0 85.04)"><tspan x="0" y="0">BUBB</tspan><tspan class="cls-2" x="355.82" y="0">L</tspan><tspan class="cls-3" x="427.05" y="0">E </tspan><tspan x="0" y="120.06">JUGG</tspan><tspan class="cls-2" x="316.2" y="120.06">L</tspan><tspan class="cls-3" x="387.43" y="120.06">E</tspan></text><path d="M42.07,23.48c-4.72-.03-9.49-.27-14.2-.08-2.13,.08-3.47,1.01-4.45,2.88-.9,1.7-1.84,3.31-3.02,4.85-4.5,5.89-11.52,12.9-8.17,21.05,.64,1.56,2.78,1.35,2.95-.4,.49-5.11,.52-10.19,.42-15.32-.07-3.13-.11-7.45,2.99-9.23l-2.2-.9c.97,4.64,1.27,9.36,.94,14.09-.13,1.93,2.87,1.92,3,0,.35-4.99-.02-9.99-1.04-14.89-.2-.96-1.41-1.35-2.2-.9-3.7,2.12-4.44,6.53-4.48,10.45-.03,2.52,.13,5.04,.1,7.56-.04,3.05-.21,6.09-.51,9.13l2.95-.4c-2.91-7.09,3.71-13.32,7.62-18.41,1.06-1.38,2.06-2.81,2.86-4.36,.3-.59,.61-1.56,1.17-1.96,.66-.47,1.74-.26,2.5-.26l12.81,.08c1.93,.01,1.93-2.99,0-3h0Z"/><path d="M23.1,26.84c-3.17,3.92-6.39,7.81-9.51,11.77-2.4,3.06-4.3,7.3-1.29,10.67,.59,.66,1.98,.56,2.36-.3,1.47-3.37,1.6-6.96,1.74-10.58,.13-3.33,.28-7,2.63-9.6l-2.56-1.06c.35,6.24,.44,12.5,.27,18.75h3l.09-5.06c.04-1.98-2.78-1.87-3,0-.29,2.47-.83,4.89-1.57,7.25l2.95,.4c-.24-9.83,5.44-19.24,14.22-23.65,1.09-.55,.92-2.54-.36-2.74-3.3-.52-6.62-.67-9.94-.29-2.51,.28-5.53,1.07-5.85,4.07s2.71,4.15,5.14,3.57c2.56-.61,4.34-2.93,5.75-4.98,1.1-1.59-1.5-3.09-2.59-1.51-.82,1.19-1.76,2.5-3.04,3.23-.52,.29-1.27,.59-1.88,.38-.77-.27-.29-.89,.23-1.2,1.43-.84,3.73-.72,5.33-.76,2.02-.05,4.04,.08,6.04,.4l-.36-2.74c-9.67,4.87-15.96,15.43-15.7,26.24,.04,1.7,2.44,2.02,2.95,.4,.82-2.63,1.36-5.31,1.67-8.05h-3l-.09,5.06c-.04,1.93,2.95,1.93,3,0,.17-6.25,.08-12.5-.27-18.75-.07-1.22-1.64-2.08-2.56-1.06-2.51,2.77-3.19,6.3-3.42,9.92s.06,7.48-1.42,10.87l2.36-.3c-2.4-2.69,1.39-6.56,2.99-8.54l7.8-9.65c1.2-1.49-.91-3.62-2.12-2.12h0Z"/><path d="M103.56,21c-3.88,4.17-7.85,8.48-10.07,13.81-2.1,5.04-2.42,10.92,.3,15.79,.71,1.28,2.85,.74,2.8-.76-.26-7.12-.48-14.41,2.2-21.15l-2.95-.4c-.65,6.6,.14,13.28,2.32,19.54,.54,1.55,2.94,1.36,2.95-.4l.03-6.9c0-1.75-2.4-1.96-2.95-.4-1.51,4.35-1.82,8.94-1.05,13.47,.29,1.7,2.94,1.25,2.95-.4l.02-7.6-2.95,.4c.9,2.75-2.11,5.05-4.08,6.43l2.2,1.69,1.4-8.6c.44-2.71,.72-5.52,1.6-8.13,1.5-4.46,5.9-7.06,7.84-11.28l-2.8-.76c-.08,3.63-.67,7.2-1.78,10.66-.06,.19-.47,1.07-.41,1.15l.57,.06c-.05-.08-.09-.17-.12-.25,0-.58-.2-1.23-.21-1.84l-.11-5.62c-.04-1.93-3.03-1.93-3,0l.11,7.41c.03,1.93,3.03,1.93,3,0l-.11-7.41h-3l.08,3.98c.02,1.22-.07,2.52,.19,3.72,.38,1.79,1.99,3.67,3.98,2.67,.95-.48,1.36-1.44,1.7-2.4,.44-1.25,.79-2.54,1.09-3.83,.62-2.72,.95-5.51,1.02-8.29,.03-1.42-2.16-2.14-2.8-.76-2,4.35-6.31,7.01-8,11.59-.95,2.57-1.23,5.37-1.66,8.05l-1.48,9.09c-.19,1.15,1.02,2.53,2.2,1.69,3.11-2.19,6.84-5.6,5.46-9.82-.52-1.57-2.94-1.35-2.95,.4l-.02,7.6,2.95-.4c-.69-4-.28-8.05,1.05-11.87l-2.95-.4-.03,6.9,2.95-.4c-2.1-6.04-2.84-12.38-2.21-18.74,.18-1.82-2.38-1.84-2.95-.4-2.77,6.97-2.57,14.59-2.3,21.95l2.8-.76c-5.34-9.56,3.16-19.36,9.3-25.96,1.31-1.41-.8-3.54-2.12-2.12h0Z"/><path d="M156.26,23.6c-2.09,3.31-2.87,7.15-3.13,11.02-.29,4.24-.14,8.53-.15,12.78l1.5-1.5c-1.4,.04-1.33-2.95-1.34-3.89l-.08-8.23c-.02-2.33-.17-4.69,.01-7.01,.14-1.72,.56-3.58,2.23-4.4l-2.26-1.3c.13,2.39-.25,4.66-1.12,6.88l2.95,.4c-.12-1.24,.65-2.46,1.99-2.51l-1.3-2.26c-4.19,5.88-6.8,12.74-7.67,19.9-.1,.82-.05,1.77-.27,2.57-.03,.11-.36,.73-.35,.73l.85-.16c-.13-.27-.25-.55-.35-.83-.65-1.68-1.06-3.45-1.18-5.25s0-3.6,.41-5.36c.06-.27,.46-1.93,.51-1.93,.6-.05,.78,1.65,.83,1.97,.26,1.42,2.05,1.27,2.74,.36,.79-1.03,.93-2.2,.75-3.45-.24-1.69-2.98-1.26-2.95,.4l.11,5.36c.04,1.79,2.34,1.91,2.95,.4l3.31-8.24c.72-1.79-2.18-2.57-2.89-.8l-3.31,8.24,2.95,.4-.11-5.36-2.95,.4c.06,.46-.19,.8-.45,1.14l2.74,.36c-.31-1.65-.96-3.41-2.71-3.98-1.64-.54-3.13,.25-3.77,1.81-1.47,3.6-1.53,7.92-.69,11.67,.35,1.56,.87,3.96,2.08,5.1,1.28,1.21,3.04,.45,3.83-.89,.92-1.58,.74-3.56,.99-5.31,.28-1.91,.7-3.79,1.24-5.64,1.28-4.34,3.3-8.4,5.93-12.09,.66-.92-.22-2.3-1.3-2.26-2.85,.12-5.28,2.59-4.99,5.51,.17,1.71,2.32,2,2.95,.4,.96-2.45,1.37-5.06,1.23-7.68-.06-1.18-1.21-1.81-2.26-1.3-2.22,1.09-3.23,3.4-3.57,5.74-.44,3.04-.18,6.2-.15,9.26s-.27,6.5,.23,9.61c.36,2.22,1.64,4.59,4.19,4.52,.81-.02,1.5-.67,1.5-1.5,0-3.97-.11-7.97,.1-11.94,.19-3.63,.81-7.23,2.77-10.35,1.03-1.64-1.56-3.14-2.59-1.51h0Z"/><path d="M158.48,25.6l-.13-.08,.74,1.3-.69,.99-1.16-.15-.47-.8-.23,.43c-.24,.27-.41,.76-.59,1.08l-.94,1.73-2.11,3.9-4.1,7.58,2.74,1.16c.85-4.14,2.77-7.91,4.57-11.71l5.77-12.15c.68-1.43-1.18-3.21-2.36-1.82-5.21,6.15-9.03,13.32-11.19,21.1-.53,1.9,2.21,2.57,2.89,.8l8.34-21.74-2.95-.4c-.5,5.69-2.68,11.06-6.13,15.59l2.74,1.16c1.43-6.33,3.3-12.55,5.6-18.62l-2.89-.8c-1.33,5.13-3.62,9.89-6.77,14.16l2.59,1.51c.88-2.06,1.89-4.11,2.65-6.22,.53-1.47,.22-3.3-1.55-3.67-3.54-.75-5.45,4.43-6.22,6.95-.29,.96,.5,1.87,1.45,1.9l2.3,.07c1.93,.06,1.93-2.94,0-3l-2.3-.07,1.45,1.9c.3-.98,.67-1.93,1.16-2.83,.25-.47,.52-1.09,.9-1.48,.12-.13,.64-.37,.68-.47,.35-.09,.15-.26-.6-.51-.12,.32-.26,.64-.39,.96-.22,.53-.45,1.05-.67,1.58l-1.44,3.38c-.76,1.77,1.43,3.09,2.59,1.51,3.3-4.45,5.69-9.51,7.07-14.87,.49-1.9-2.22-2.57-2.89-.8-2.3,6.07-4.17,12.29-5.6,18.62-.39,1.75,1.74,2.47,2.74,1.16,3.78-4.97,5.99-10.9,6.54-17.1,.16-1.81-2.39-1.86-2.95-.4l-8.34,21.74,2.89,.8c2.02-7.26,5.55-14.02,10.42-19.77l-2.36-1.82-5.99,12.6c-1.84,3.87-3.79,7.75-4.66,11.97-.33,1.59,1.89,2.73,2.74,1.16l7.27-13.42c.71-1.32,2.21-4.15-.26-4.76-1.92-.47-3.21,2.22-1.44,3.28,1.66,.99,3.18-1.61,1.51-2.59h0Z"/><path d="M206.07,37.46l-.13-2.3c-.08-1.38-2.08-2.18-2.8-.76-3.26,6.49-6.12,13.17-8.58,20-.57,1.59,1.98,2.67,2.74,1.16,3.98-7.9,7.3-16.13,9.9-24.59,.57-1.86-2.28-2.62-2.89-.8-3.35,9.95-6.5,19.96-9.44,30.04-.48,1.64,1.89,2.63,2.74,1.16,2.45-4.21,3.81-8.9,5.06-13.58,1.39-5.2,2.77-10.4,4.15-15.61h-2.89c.94,4.46,.38,9.12-1.62,13.22l2.74,.36c-.71-4.16,.12-8.43,2.21-12.08l-2.74-1.16c-.8,3.49-2.56,6.57-5.17,9.02l2.56,1.06c.64-7.98,9.68-11.89,14.67-16.89,1.29-1.3,2.93-2.93,3.31-4.78s-.74-3.38-2.41-3.91c-3.59-1.15-6.96,2.88-9.07,5.22-3.03,3.37-5.39,7.21-7.14,11.38-.58,1.39,1.56,2.54,2.51,1.46l11.82-13.55c1.04-1.19-.38-3.46-1.82-2.36-5.41,4.15-9.99,9.22-13.5,15.08-.91,1.52,1.11,2.9,2.36,1.82l8.74-7.61c1.12-.98-.06-2.97-1.46-2.51-5.64,1.88-9.6,6.81-10.38,12.67-.13,.95,1.06,1.73,1.9,1.45,5.13-1.72,7.84-6.56,10.05-11.17,.59-1.22-.71-3-2.05-2.05-5.39,3.81-9.74,8.91-12.55,14.89-.59,1.26,.68,2.93,2.05,2.05,6.17-3.95,10.69-10.1,12.56-17.19,.32-1.2-1.08-2.44-2.2-1.69-4.2,2.79-7.64,6.52-10.03,10.97-.56,1.05,.4,2.71,1.69,2.2,2-.78,3.74-1.93,5.12-3.59l-2.56-1.06,.16,1.63c.19,1.9,3.19,1.92,3,0l-.16-1.63c-.12-1.15-1.64-2.16-2.56-1.06-1.04,1.24-2.28,2.23-3.8,2.82l1.69,2.2c2.14-3.99,5.18-7.38,8.95-9.89l-2.2-1.69c-1.67,6.33-5.66,11.86-11.18,15.4l2.05,2.05c2.58-5.51,6.49-10.3,11.47-13.82l-2.05-2.05c-1.81,3.78-3.99,8.35-8.26,9.79l1.9,1.45c.6-4.46,3.94-8.37,8.18-9.78l-1.46-2.51-8.74,7.61,2.36,1.82c3.23-5.39,7.43-10.17,12.42-14l-1.82-2.36-11.82,13.55,2.51,1.46c1.68-3.99,4.1-7.68,7.08-10.82,.77-.81,1.57-1.58,2.4-2.31,.65-.57,1.57-1.49,2.51-1.48,2.16,.03-1.3,3.4-1.85,3.93-5.81,5.74-14.67,9.69-15.4,18.87-.11,1.36,1.68,1.89,2.56,1.06,2.96-2.79,5.03-6.38,5.94-10.35,.37-1.62-1.87-2.67-2.74-1.16-2.52,4.39-3.36,9.41-2.52,14.39,.21,1.25,2.2,1.48,2.74,.36,2.37-4.86,3.04-10.24,1.92-15.53-.31-1.48-2.53-1.38-2.89,0-1.35,5.06-2.69,10.11-4.04,15.17-1.22,4.58-2.48,9.17-4.88,13.3l2.74,1.16c2.94-10.08,6.09-20.09,9.44-30.04l-2.89-.8c-2.52,8.22-5.72,16.2-9.59,23.87l2.74,1.16c2.37-6.59,5.13-13.02,8.28-19.28l-2.8-.76,.13,2.3c.11,1.92,3.11,1.93,3,0h0Z"/><path d="M299.94,36.44c1.1-3.32,3.34-6.11,6.32-7.94l-1.82-2.36c-5.09,5.1-10.51,9.87-16.25,14.22l1.82,2.36,13.6-14.03c1.03-1.06,0-2.92-1.46-2.51-7.44,2.11-13.41,8.08-15.51,15.52-.41,1.44,1.46,2.53,2.51,1.46,5.31-5.4,9.75-11.6,13.13-18.38,.63-1.26-.7-2.91-2.05-2.05-5.37,3.4-9.98,7.78-13.7,12.94-.94,1.31,.84,2.68,2.05,2.05,7.27-3.75,13.79-8.87,19.15-15.05,.8-.92,.4-2.06-.66-2.51-2.12-.88-4.13,.48-5.74,1.75-1.82,1.44-3.57,2.97-5.23,4.58-3.32,3.22-6.29,6.78-8.93,10.58-.96,1.38,1.3,3.16,2.36,1.82l11.09-14.15c1.03-1.32-.21-3.15-1.82-2.36-4.5,2.22-8.54,5.28-11.91,9.01-1.29,1.43,.75,3.5,2.12,2.12,1.97-1.98,3.66-4.22,5.02-6.66,.68-1.23-.76-2.95-2.05-2.05-4.56,3.19-7.81,7.93-9,13.39-.34,1.56,1.35,2.36,2.51,1.46,6.21-4.84,11.35-10.96,15.07-17.89,.57-1.06-.4-2.69-1.69-2.2-5.29,1.97-8.08,7.4-10.68,12.04-3.08,5.48-5.72,11.2-7.97,17.06-.63,1.65,1.87,2.53,2.74,1.16l11.23-17.6-2.59-1.51c-3.49,5.84-6.22,12.11-8.11,18.64-.54,1.87,2.27,2.6,2.89,.8,1.96-5.67,3.36-11.5,4.17-17.44l-2.95-.4c.46,5.49-.44,11-2.74,16.01l2.74,1.16c1.95-6.3,4.13-12.53,6.52-18.68l-2.95-.4c-.17,5.62-.9,11.17-2.19,16.64h2.89c-.65-2.06,.97-4.38,3.17-4.38,1.93,0,1.93-3,0-3-4.08,0-7.3,4.25-6.06,8.18,.43,1.35,2.54,1.5,2.89,0,1.34-5.72,2.11-11.56,2.29-17.44,.06-1.8-2.37-1.88-2.95-.4-2.4,6.15-4.58,12.38-6.52,18.68-.49,1.59,2.02,2.72,2.74,1.16,2.53-5.49,3.66-11.49,3.15-17.53-.13-1.55-2.7-2.19-2.95-.4-.81,5.94-2.21,11.77-4.17,17.44l2.89,.8c1.83-6.3,4.44-12.3,7.81-17.92,1-1.67-1.56-3.14-2.59-1.51l-11.23,17.6,2.74,1.16c2.05-5.34,4.46-10.53,7.22-15.54,1.26-2.29,2.55-4.59,4.03-6.74,1.34-1.96,3.02-3.88,5.3-4.73l-1.69-2.2c-3.61,6.73-8.57,12.59-14.6,17.28l2.51,1.46c1.01-4.67,3.69-8.84,7.62-11.6l-2.05-2.05c-1.24,2.23-2.75,4.24-4.55,6.05l2.12,2.12c3.21-3.55,7-6.42,11.3-8.54l-1.82-2.36-11.09,14.15,2.36,1.82c2.24-3.23,4.76-6.26,7.53-9.06,1.33-1.34,2.71-2.62,4.14-3.85,1.14-.97,3.21-3.32,4.84-2.64l-.66-2.51c-5.21,6-11.48,10.93-18.54,14.58l2.05,2.05c3.41-4.73,7.71-8.75,12.62-11.86l-2.05-2.05c-3.27,6.56-7.52,12.54-12.66,17.77l2.51,1.46c1.82-6.44,6.98-11.6,13.42-13.42l-1.46-2.51-13.6,14.03c-1.14,1.17,.41,3.42,1.82,2.36,5.95-4.51,11.58-9.41,16.85-14.69,1.19-1.19-.34-3.26-1.82-2.36-3.66,2.25-6.34,5.66-7.7,9.73-.61,1.84,2.29,2.62,2.89,.8h0Z"/><path d="M365.65,37.06c-1.91,6.71-3.11,13.6-3.6,20.56-.14,1.96,2.77,1.87,3,0,1.02-8.14,1.51-16.32,1.48-24.52h-3l.62,31.34c.04,1.93,2.98,1.93,3,0l.28-28.32c.02-1.94-2.91-1.92-3,0l-1.21,26.71c-.07,1.66,2.68,2.09,2.95,.4l4.94-31.2-2.95-.4-1.74,25.26c-.13,1.96,2.77,1.87,3,0l3.34-27.1-2.95,.4c1,6.77,.76,13.7-.66,20.4l2.95,.4c-.16-8.49,.41-16.97,1.76-25.36h-2.89l.98,6.14c.15,.96,1.45,1.36,2.2,.9,3.36-2.08,5.8-5.19,7.06-8.93,.25-.75-.29-1.67-1.05-1.85-4.14-.98-8.41,1.44-9.73,5.48-.39,1.2,1.13,2.44,2.2,1.69,1.67-1.15,2.98-2.61,3.79-4.48,.63-1.43-1.12-3.2-2.36-1.82l-3.98,4.44c-1.1,1.23,.3,3.27,1.82,2.36,2.32-1.39,3.71-3.85,3.67-6.56-.01-.9-.96-1.8-1.9-1.45-3.69,1.38-6.71,4.06-8.34,7.67-.54,1.19,.7,3.05,2.05,2.05,3.69-2.73,7.59-5.99,7.81-10.93,.05-1.16-1.31-1.84-2.26-1.3-3.45,2-5.58,5.4-6.1,9.32-.19,1.47,2.18,2.05,2.8,.76,1.25-2.61,2.85-4.97,4.84-7.07,1.35-1.42-.66-3.36-2.12-2.12-1.59,1.35-2.94,2.9-4.09,4.63-.44,.65-.15,1.69,.54,2.05,.92,.48,1.78,.59,2.79,.36,1.88-.43,1.09-3.32-.8-2.89-.17,.07-.33,.05-.48-.06l.54,2.05c1.01-1.52,2.23-2.84,3.62-4.02l-2.12-2.12c-2.16,2.28-3.95,4.85-5.31,7.68l2.8,.76c.37-2.84,2.16-5.31,4.61-6.73l-2.26-1.3c-.17,3.71-3.59,6.32-6.33,8.34l2.05,2.05c1.29-2.88,3.57-5.17,6.55-6.29l-1.9-1.45c.02,1.67-.75,3.11-2.18,3.97l1.82,2.36,3.98-4.44-2.36-1.82c-.61,1.38-1.47,2.54-2.72,3.4l2.2,1.69c.8-2.45,3.53-3.98,6.04-3.38l-1.05-1.85c-1,2.99-3,5.49-5.68,7.14l2.2,.9-.98-6.14c-.23-1.43-2.66-1.43-2.89,0-1.39,8.65-2.03,17.39-1.87,26.15,.03,1.64,2.59,2.11,2.95,.4,1.54-7.26,1.74-14.65,.66-21.99-.11-.73-.99-1.16-1.65-1.07-.8,.11-1.21,.72-1.3,1.47l-3.34,27.1h3l1.74-25.26c.11-1.66-2.68-2.08-2.95-.4l-4.94,31.2,2.95,.4,1.21-26.71h-3l-.28,28.32h3l-.62-31.34c-.04-1.93-3.01-1.94-3,0,.03,8.2-.47,16.39-1.48,24.52h3c.47-6.7,1.65-13.3,3.49-19.76,.53-1.86-2.36-2.65-2.89-.8h0Z"/><path d="M369.99,24.23c-2.5,3.64-3.96,7.88-4.34,12.27-.06,.73,.62,1.39,1.3,1.47,.77,.09,1.39-.35,1.65-1.07,1.2-3.42,2-6.94,2.48-10.54,.19-1.45-2.21-2.08-2.8-.76-1.55,3.51-2.84,7.13-3.82,10.84-.38,1.44,1.44,2.53,2.51,1.46,3.48-3.48,6.09-7.74,7.64-12.41l-2.89-.8c-.57,2.6-1.14,5.2-1.71,7.81-.27,1.25-.52,2.58,.13,3.76s2.04,1.86,3.3,1.42c.76-.27,1.27-1.03,1.05-1.85-.2-.74-1.08-1.32-1.85-1.05-.34,.12,.04,.05,.1,.04,.04,0,.07,.02,.09,.06-.13-.13-.15-.15-.07-.06,.08,.18-.05-.11-.05-.1-.03-.18-.01-.42,.01-.59,.11-.88,.38-1.78,.57-2.66l1.31-5.97c.41-1.89-2.28-2.63-2.89-.8-1.39,4.18-3.76,7.98-6.87,11.09l2.51,1.46c.91-3.46,2.08-6.85,3.52-10.12l-2.8-.76c-.44,3.32-1.26,6.59-2.37,9.74l2.95,.4c.34-3.87,1.74-7.56,3.93-10.75,.46-.67,.12-1.66-.54-2.05-.74-.44-1.59-.13-2.05,.54h0Z"/><path d="M453.86,34.96c3.2-2.53,6.64-4.73,10.25-6.62l-1.51-2.59c-7.55,4.23-14.46,9.57-20.47,15.8-1.13,1.17,.4,3.41,1.82,2.36l21.26-15.75c1.05-.78,.89-2.96-.76-2.8-7.2,.7-13.93,4.25-18.38,9.99-.46,.59-.69,1.56,0,2.12,2.05,1.67,4.24,.04,6.16-1.04,2.39-1.34,4.77-2.68,7.12-4.08,4.67-2.78,9.21-5.78,13.43-9.21,1.2-.98-.1-2.89-1.46-2.51-9.42,2.67-18.07,7.6-25.18,14.32-.93,.88-.23,2.61,1.06,2.56,5.22-.19,10.32-1.54,14.95-3.95,2.24-1.17,4.34-2.6,6.28-4.23,1.6-1.34,4.59-3.52,4.11-5.92-.43-2.19-2.94-2.59-4.79-2.18-2.5,.56-5.01,1.94-7.08,3.4-1.86,1.31-4.25,3-4.95,5.29-.75,2.45,1.31,4.26,3.68,3.83,2.78-.51,5.68-2.2,8.05-3.67,2.57-1.61,4.94-3.54,7.05-5.71,.71-.73,.5-2.33-.66-2.51-3.96-.6-8.21,1.48-9.6,5.4-.78,2.19,.36,4.1,2.63,4.5,2.11,.37,4.38-.11,6.2-1.23,1.52-.94,3.8-2.85,2.81-4.87-.9-1.83-4.03-1.94-5.76-1.71-2.02,.26-3.81,1.67-3.95,3.82-.15,2.26,1.65,3.37,3.66,3.56s4.45-.19,5.77-1.95c1.09-1.44,1.25-3.72-.05-5.1s-3.67-1.29-4.95,.13-.91,3.59,.54,4.77,3.62,1.37,5.21,.24c1.71-1.22,2.45-3.31,2.69-5.33s-.96-4.01-3.19-3.29c-1.84,.6-2.68,2.7-1.67,4.36,1.15,1.9,4.13,2.56,6,1.41,.87-.53,1.54-1.42,1.45-2.48-.12-1.26-1.11-1.88-2.19-2.31-1.62-.65-5.8-2.11-6.26,.75-.39,2.44,3.69,2.94,3.61,.4-.02-.68-.45-1.25-1.1-1.45-2.28-.7-4.27,.94-4.57,3.16-.08,.61,.52,1.33,1.1,1.45,2.97,.62,6.61,.27,7.94-2.9s-.76-5.67-3.87-5.89c-2.77-.2-6.08,.82-7.56,3.33-1.37,2.33-.81,5.69,1.67,7.01,1.7,.91,3.22-1.68,1.51-2.59-1.04-.56-1.16-1.94-.59-2.91,.75-1.28,2.48-1.76,3.87-1.85,1.26-.08,2.98,.19,2.19,1.84-.75,1.55-2.96,1.35-4.34,1.06l1.1,1.45c.05-.34,.57-.33,.77-.26l-1.1-1.45v.15l.44-1.06-.09,.08,1.06-.44,.19,1.08c-.22,.72-.11,1.08,.35,1.11,.15,.08,.43,.08,.59,.11,.43,.09,.86,.21,1.27,.34,.16,.05,1.05,.5,1.17,.44l-.03-.39c.09-.37,.05-.48-.12-.34-.03-.01-.38,.13-.45,.14-.52,.06-1.08-.25-1.45-.46-.07-.04,.11,.05-.02-.03l-.3-.16c-.25-.25-.35-.23-.31,.04-.08,.12-.06,.53-.09,.69-.19,1.05-.76,3.05-2.15,2.98-.25-.01-1.13-.31-1.1-.68,.02-.21,.4-.33,.57-.24,.34,.2,.11,.95-.05,1.2-.4,.61-1.24,.8-1.92,.86-.36,.03-1.9,.18-2.16-.22-.21-.32,.26-.85,.53-1.01,.68-.42,1.75-.27,2.49-.18,.1,.01,1.01,.25,1.06,.21,.1-.09-.02-.63-.21-.55-.14,.06-.36,.41-.48,.52-1.1,1.08-2.64,1.72-4.19,1.74-.32,0-.92,.06-1.21-.12,.16,.1-.28-.08-.24-.02-.1-.13,.19-.71,.24-.82,.32-.71,.83-1.33,1.42-1.83,1.2-1.01,2.86-1.58,4.42-1.34l-.66-2.51c-2.72,2.8-5.85,5.12-9.34,6.86-.87,.44-1.76,.84-2.68,1.19-.36,.14-.72,.29-1.1,.4-.2,.06-.39,.11-.6,.14-.28,.04-.17-.09-.11,.09-.17-.53,1.05-1.55,1.35-1.83,.72-.68,1.47-1.31,2.28-1.87,1.6-1.12,3.34-2.06,5.17-2.72,.68-.24,1.35-.49,2.08-.41,.14,.02,.22,.12,.22,.01,0-.01-.9,.83-1,.93-2.62,2.69-5.71,4.86-9.09,6.47-3.86,1.84-8.1,2.85-12.36,3.01l1.06,2.56c6.74-6.38,14.94-11.02,23.86-13.55l-1.46-2.51c-3.61,2.93-7.49,5.51-11.46,7.92-1.95,1.18-3.92,2.32-5.9,3.45-.99,.56-1.98,1.12-2.98,1.68-.53,.29-1.05,.62-1.59,.89-.18,.11-.36,.19-.56,.25-.32,.02-.31,.07,.02,.14v2.12c3.95-5.09,9.82-8.49,16.26-9.11l-.76-2.8-21.26,15.75,1.82,2.36c5.84-6.06,12.52-11.21,19.86-15.33,1.69-.95,.19-3.48-1.51-2.59-3.85,2.01-7.45,4.4-10.86,7.09-1.51,1.2,.62,3.31,2.12,2.12h0Z"/><path d="M405.32,165.52l10.95-7.34c1.32-.88,.52-3.41-1.16-2.74l-13.78,5.51,1.16,2.74c4.46-2.12,8.86-4.37,13.16-6.79,3.42-1.93,6.8-4.28,8.09-8.17,.32-.98-.53-1.84-1.45-1.9-3.16-.19-6.39,.68-9.01,2.46-1.58,1.08-6.34,5.04-2.86,6.72,1.35,.65,2.95-.1,4.23-.59,1.56-.59,3.08-1.27,4.55-2.05,3.07-1.64,5.89-3.72,8.41-6.13,.87-.84,.26-2.7-1.06-2.56-6.88,.74-13.29,4.14-17.58,9.62-.74,.94-.37,2.61,1.06,2.56,5.85-.2,11.22-3.2,14.48-8.05,.7-1.05-.27-2.13-1.3-2.26-1.1-.13-2.08,.29-2.87,1.03-1.05,.98,.03,3.05,1.46,2.51,3.75-1.43,7.06-3.7,9.63-6.79,.8-.96,.32-2.56-1.06-2.56-3.78,0-7.44,1.25-10.42,3.58-2.29,1.79-6.27,5.94-3.43,8.89,2.45,2.55,6.41,.29,8.71-1.24,3.31-2.2,6.13-4.96,8.5-8.14,.58-.78-.03-1.99-.9-2.2-2.94-.72-6.06-.04-8.36,1.96-2.02,1.75-3.3,5.02-1.55,7.38s5.46,2.01,8.05,1.27c2.78-.8,5.36-2.33,7.4-4.39,1.68-1.69,4.77-5.19,2.11-7.28-1.13-.89-2.8-1.21-4.19-1.42-1.79-.27-3.58-.24-5.36,.1-2.73,.52-5.62,2.51-4.43,5.67s4.7,3.53,7.57,2.84c1.5-.36,3.22-.8,4.32-1.96s1.2-2.77,.39-4.06-2.33-1.96-3.78-1.9c-1.92,.08-3.48,1.39-4.85,2.6-.59,.53-.56,1.59,0,2.12,2.45,2.31,6.55,2.25,8.8-.33,.72-.83,.49-2.2-.66-2.51-3.11-.83-6.25,1.56-6.32,4.76-.03,1.07,.97,1.58,1.9,1.45,2.13-.3,4.06-1.37,5.5-2.96,1.06-1.17,0-2.75-1.46-2.51l-3.97,.66c-1.9,.31-1.09,3.21,.8,2.89l3.97-.66-1.46-2.51c-1.14,1.26-2.5,1.95-4.17,2.19l1.9,1.45c.03-1.26,1.32-2.19,2.52-1.87l-.66-2.51c-1.16,1.33-3.23,1.58-4.56,.33v2.12c.66-.58,1.33-1.21,2.16-1.54,.45-.18,1.64-.36,1.84,.35,.26,.96-3.04,1.53-3.67,1.64-.85,.15-1.87,.22-2.62-.3-.48-.33-.98-.99-.64-1.58,.74-1.27,3.81-1.21,5.02-1.17,.96,.03,1.9,.18,2.83,.44,.41,.11,.8,.25,1.2,.39,.34,.12,.15,.17,.18,.09,.06-.19-.37,.35-.4,.4-.86,1.41-1.99,2.66-3.29,3.67s-2.79,1.79-4.35,2.28c-1.34,.42-3.23,.97-4.58,.39-1.89-.81-.26-3.21,.79-4.02,1.51-1.16,3.47-1.53,5.31-1.08l-.9-2.2c-1.68,2.25-3.68,4.28-5.92,5.98-1.09,.83-2.24,1.59-3.43,2.26-.62,.35-2.17,1.17-2.9,.7-1.58-1.02,2.99-4.71,3.82-5.25,2.3-1.49,4.92-2.27,7.65-2.26l-1.06-2.56c-2.23,2.68-5.04,4.78-8.3,6.02l1.46,2.51c.26-.25,.4-.19,.75-.15l-1.3-2.26c-2.65,3.95-7.14,6.41-11.89,6.57l1.06,2.56c3.77-4.82,9.34-8.08,15.46-8.74l-1.06-2.56c-3.6,3.44-7.9,6.14-12.62,7.77-.24,.08-1.12,.21-1.25,.4-.16,.35,.07,.66,.71,.92l.24-.29c.19-.15,.34-.39,.51-.56,.79-.82,1.69-1.51,2.69-2.07,2.01-1.12,4.24-1.59,6.53-1.46l-1.45-1.9c-1.16,3.51-4.88,5.38-7.9,7.05-3.92,2.17-7.92,4.21-11.97,6.13-1.52,.72-.43,3.38,1.16,2.74l13.78-5.51-1.16-2.74-10.95,7.34c-1.6,1.07-.1,3.67,1.51,2.59h0Z"/><path d="M328.72,152.52l-.7-4c-.3-1.69-2.95-1.26-2.95,.4l.09,19.81c0,1.45,2.08,2.09,2.8,.76,3.32-6.15,5.03-13.04,4.93-20.03-.02-1.67-2.51-2.07-2.95-.4l-5.2,19.98c-.41,1.58,2,2.74,2.74,1.16,3.65-7.82,5.68-16.19,7.63-24.55l-2.95-.4c-.72,7.67-2.43,15.21-5.02,22.47-.65,1.83,2.23,2.59,2.89,.8,2.97-8.02,4.98-16.33,6.1-24.81,.2-1.53-2.12-1.97-2.8-.76-3.19,5.71-5.41,11.9-6.53,18.35-.24,1.38,1.39,2.62,2.51,1.46,3.09-3.21,5.51-6.98,7.11-11.14,1.37-3.56,2.26-8.95-2.06-10.93-4.07-1.87-7.66,2.39-9.15,5.7-.82,1.81-1.12,4.04,.32,5.64,1.1,1.21,2.82,1.48,4.36,1.14,5.03-1.11,4.93-6.51,6.5-10.39,.63-1.56-2.04-2.7-2.74-1.16-4.64,10.17-7.69,20.91-9.11,32-.23,1.78,2.41,1.87,2.95,.4,3.91-10.72,6.5-21.84,7.82-33.17,.2-1.7-2.53-2-2.95-.4-2.27,8.7-3.88,17.55-4.87,26.49-.19,1.72,2.5,1.98,2.95,.4,2.32-8.17,3.72-16.59,4.18-25.07,.03-.6-.49-1.34-1.1-1.45-2.56-.46-4.46,1-5.92,2.98s-3.01,4.7-1.49,6.96c1.18,1.76,3.73,1.89,5.45,.9,2.27-1.31,2.73-4.06,3.04-6.43,.24-1.81-2.38-1.83-2.95-.4-2.14,5.4-3.82,10.97-4.97,16.66-.56,2.76-1.12,5.61-1.33,8.42-.14,1.9,.65,4.25,2.91,4.22,.71,0,1.21-.47,1.45-1.1,3.46-9.46,4.6-19.7,3.26-29.69-.22-1.68-2.3-2.04-2.95-.4-3.31,8.4-4.92,17.41-4.77,26.44,.03,1.65,2.55,2.09,2.95,.4,1.97-8.32,3.6-16.71,4.88-25.17l-2.95-.4-.14,7.53c-.04,1.93,2.96,1.93,3,0l.14-7.53c.03-1.64-2.69-2.1-2.95-.4-1.28,8.45-2.9,16.85-4.88,25.17l2.95,.4c-.15-8.79,1.44-17.47,4.66-25.64l-2.95-.4c1.3,9.76,.23,19.65-3.16,28.89l1.45-1.1c.4,0,.07,.17,.08-.35,0-.45,.01-.87,.06-1.33,.12-1.1,.29-2.19,.46-3.28,.38-2.37,.85-4.72,1.4-7.06,1.09-4.6,2.53-9.1,4.27-13.49l-2.95-.4c-.15,1.14-.3,2.68-1.16,3.53-.38,.37-1.51,.9-1.89,.24-.5-.86,.95-2.71,1.43-3.39,.59-.83,1.59-2.11,2.76-1.91l-1.1-1.45c-.45,8.23-1.82,16.35-4.08,24.28l2.95,.4c.96-8.67,2.56-17.25,4.76-25.69l-2.95-.4c-1.29,11.05-3.91,21.92-7.72,32.37l2.95,.4c1.35-10.52,4.3-20.84,8.7-30.48l-2.74-1.16c-1.04,2.57-.92,7.68-4.41,8.29-1.64,.29-1.81-1.08-1.3-2.36,.62-1.57,1.78-3.35,3.25-4.24s2.93-.14,3.42,1.46c.57,1.85-.27,3.97-.94,5.69-1.42,3.67-3.62,7-6.34,9.82l2.51,1.46c1.07-6.2,3.16-12.14,6.23-17.63l-2.8-.76c-1.08,8.2-3.12,16.26-5.99,24.01l2.89,.8c2.69-7.51,4.39-15.32,5.13-23.26,.16-1.69-2.57-2.03-2.95-.4-1.89,8.09-3.79,16.27-7.33,23.84l2.74,1.16,5.2-19.98-2.95-.4c.09,6.47-1.45,12.82-4.52,18.52l2.8,.76-.09-19.81-2.95,.4,.7,4c.33,1.9,3.23,1.09,2.89-.8h0Z"/><path d="M285.54,142.49c-6.69-.17-13.22,2.43-17.99,7.11-1.26,1.24,.33,3.09,1.82,2.36,6.81-3.35,13.35-7.2,19.58-11.53,1.31-.91,.56-3.33-1.16-2.74-8.98,3.09-17.65,7.26-25.53,12.58-1.58,1.07-3.28,2.73-2.4,4.81,.67,1.58,2.4,1.97,3.96,1.74,1.96-.28,3.73-1.47,5.43-2.43,2.05-1.16,4.06-2.39,6.01-3.7,4.39-2.94,8.52-6.24,12.37-9.86,.65-.61,.57-1.95-.3-2.36-3.33-1.53-6.75-.31-9.71,1.49s-5.47,3.88-7.72,6.33c-1.13,1.22-2.17,2.53-3.13,3.89-.88,1.25-2.07,2.75-2.37,4.27s.69,2.9,2.22,3.05,2.81-.76,3.99-1.57c2.74-1.87,5.23-4.12,7.33-6.7,1.09-1.34,2.09-2.75,2.97-4.23,.74-1.24,1.71-2.73,1.28-4.24-.99-3.51-5.79-1.07-7.62,.2-2.52,1.74-4.45,4.19-5.51,7.07-.58,1.58-.98,3.5,.45,4.74,1.19,1.03,3.13,1.06,4.61,.86,3.37-.46,6.13-2.71,7.4-5.84l-1.45,1.1,8.05,.63c2.15,.17,4.05-.2,4.69-2.54,.9-3.3,.38-7.83-3.1-9.29-.78-.33-1.61,.36-1.85,1.05-.88,2.63-.12,5.56,1.9,7.45,.46,.43,1.26,.61,1.82,.23,1.15-.77,1.74-2.07,1.28-3.43-.22-.63-.76-1.1-1.45-1.1-2.75,0-5.18,1.38-6.67,3.68-.69,1.07,.46,2.63,1.69,2.2,.82-.28,2.19-.49,2.67-1.3,.32-.54,.33-1.3,.14-1.88-.42-1.33-1.82-2-3.1-2.2-1.52-.24-3.09,.17-4.56,.56-1.57,.41-3.1,.97-4.59,1.63-5.95,2.63-10.98,7.2-14.19,12.85-.31,.55-.26,1.38,.23,1.82,1.61,1.42,3.56,.83,5.16-.3,1.96-1.38,3.84-2.88,5.75-4.32,1.02-.77,2.05-1.53,3.07-2.31,.81-.61,1.63-1.22,2.1-2.15,.96-1.94-.5-3.67-2.42-3.99-7.45-1.23-15.38,3.4-18.65,10.03-.53,1.08,.13,2.15,1.3,2.26,3.33,.32,6.64,.08,9.9-.65,1.88-.42,1.09-3.32-.8-2.89-3,.67-6.04,.84-9.11,.54l1.3,2.26c2.3-4.66,6.93-8,12.12-8.61,.93-.11,2.8-.42,3.65,.06,.01-.26-.04-.29-.15-.09-.12,.14-.25,.26-.39,.37-.29,.26-.62,.48-.93,.71l-2.11,1.59-4.22,3.17c-.33,.25-3,2.6-3.44,2.21l.23,1.82c2.28-4.03,5.54-7.42,9.47-9.86,1.91-1.18,3.94-2.14,6.07-2.83,1.12-.36,2.28-.67,3.44-.87,.42-.07,.83-.13,1.26-.06,.19,.03,.4,.15,.58,.16,.47,.02-.01,.5,.13-.17l1.05-1.05-1.77,.61,1.69,2.2c.91-1.42,2.41-2.19,4.08-2.19l-1.45-1.1c.04,.2,.08,.21,.1,.04l1.82,.23c-1.29-1.21-1.69-2.86-1.13-4.53l-1.85,1.05c.88,.37,1.1,1.63,1.17,2.46,.06,.6,.04,1.2,0,1.8-.02,.36,.02,1.37-.26,1.65s-1.07,.08-1.46,.05c-.98-.07-1.95-.15-2.93-.23l-5.37-.42c-.71-.06-1.21,.52-1.45,1.1-.7,1.73-2.33,3.02-4.11,3.51-.82,.23-1.72,.32-2.56,.14-.58-.12-.48-.11-.39-.6,.11-.57,.33-1.15,.57-1.69,.79-1.8,2.08-3.42,3.66-4.6,.8-.6,1.7-1.12,2.64-1.48,.11-.04,1.25-.31,1.25-.34l-.19-.21c-.18-.31-.27-.27-.28,.11-.18,.2-.27,.54-.4,.77-2.16,3.9-5.15,7.38-8.74,10.03-.8,.59-1.67,1.3-2.58,1.71-.01,0-.5,.15-.51,.17,0,0,.28,.39,.38,.37,.21-.04,.84-1.47,.98-1.7,1.21-1.94,2.63-3.73,4.21-5.38,1.72-1.79,3.64-3.38,5.72-4.74s5.01-3.18,7.53-2.03l-.3-2.36c-5.65,5.31-11.93,9.9-18.74,13.63-1.18,.65-2.56,1.66-3.98,1.55-.23-.02-.21-.11-.18,.07-.04-.24,.52-.65,.68-.77,.79-.63,1.71-1.15,2.56-1.69,3.3-2.09,6.71-4,10.21-5.73,4.06-2,8.25-3.73,12.53-5.2l-1.16-2.74c-6.23,4.33-12.77,8.18-19.58,11.53l1.82,2.36c4.23-4.15,9.96-6.38,15.87-6.23,1.93,.05,1.93-2.95,0-3h0Z"/><path d="M205.6,143.63c-6.9-1.84-14.43,2.31-16.65,9.06-.33,1.02,.78,2.27,1.85,1.85,6.64-2.63,12.5-6.87,16.96-12.47,1.07-1.34-.22-3.09-1.82-2.36-7.03,3.24-13.83,6.96-20.34,11.14-1.25,.8-.76,2.76,.76,2.8,3.36,.09,6.67-.67,9.67-2.18,1.49-.75,2.87-1.7,4.12-2.8s2.64-2.37,2.69-4.07c.09-3.2-3.82-3.81-6.2-3.35-2.89,.56-5.58,2.12-7.64,4.2-2.42,2.45-3.89,5.54-4.33,8.94-.13,.98,1.06,1.69,1.9,1.45,4.2-1.24,7.51-4.82,8.21-9.18,.15-.92-.38-1.93-1.45-1.9-6.98,.2-11.52,6.21-15.03,11.53-.89,1.35,.81,2.66,2.05,2.05,3.71-1.79,6.77-4.65,8.87-8.18,.83-1.39-.76-2.64-2.05-2.05-2.68,1.22-4.87,3.25-6.35,5.78-.82,1.39,.76,2.64,2.05,2.05,2.77-1.26,5.21-3.14,7.15-5.49,.88-1.06,.09-3.01-1.46-2.51-2.53,.82-3.97,3.34-3.37,5.94,.13,.58,.82,1.18,1.45,1.1,3.87-.47,6.72-2.86,9.77-5.07,1.39-1.01,2.86-2.01,4.53-2.48,2.21-.62,4.51,.27,6.7-.53l-1.9-1.45c.18,2.66,2.17,4.64,4.83,4.8,1.07,.06,1.59-1,1.45-1.9-.33-2.06-1.31-3.9-2.76-5.38l-1.46,2.51c3.87,1.05,8.86-2.93,7.2-7.13-.83-2.09-3.48-1.96-4.56-.15-1.31,2.19,.65,4.11,2.44,5.13,1.43,.81,3.17-1.24,1.82-2.36s-2.83-2.22-4.67-1.99c-1.45,.18-2.82,1.18-3.07,2.68s1.32,2.45,2.51,1.46l2.1-1.75c.73-.61,.5-1.93-.3-2.36-2.52-1.34-5.48,.39-5.71,3.18-.16,1.92,2.85,1.91,3,0,.04-.52,.77-.82,1.19-.59l-.3-2.36-2.1,1.75,2.51,1.46c.23-1.37,2.27,.26,2.72,.63l1.82-2.36c-.45-.26-1.08-.89-1.33-1.05-1.23-.78-.7,.49-1.08,1.25-.62,1.24-2.04,2.02-3.39,1.65-1.45-.39-2.51,1.44-1.46,2.51,1.12,1.14,1.74,2.48,1.99,4.06l1.45-1.9c-.96-.06-1.77-.84-1.83-1.8-.06-.89-.92-1.8-1.9-1.45-2.01,.74-4.3-.06-6.4,.45-1.72,.42-3.3,1.31-4.75,2.3-2.78,1.9-5.57,4.81-9.06,5.23l1.45,1.1c-.22-.96,.33-1.95,1.27-2.25l-1.46-2.51c-1.8,2.18-3.97,3.84-6.54,5.02l2.05,2.05c1.25-2.12,3.04-3.68,5.28-4.7l-2.05-2.05c-1.86,3.12-4.53,5.53-7.79,7.11l2.05,2.05c2.86-4.34,6.68-9.88,12.44-10.04l-1.45-1.9c-.54,3.34-2.83,6.12-6.11,7.08l1.9,1.45c.34-2.64,1.7-5.09,3.58-6.95,1.77-1.75,4.48-3.41,7.06-3.39,.33,0,1.18,.02,1.4,.33,.27,.4-.31,.85-.64,1.2-1.08,1.11-2.31,2.05-3.65,2.82-2.76,1.58-5.87,2.33-9.04,2.25l.76,2.8c6.52-4.18,13.31-7.9,20.34-11.14l-1.82-2.36c-4.12,5.17-9.48,9.25-15.64,11.69l1.85,1.85c1.71-5.2,7.69-8.37,12.96-6.97,1.87,.5,2.66-2.4,.8-2.89h0Z"/><path d="M125.27,151.57c-3.02,5.91-5.3,12.16-6.75,18.64-.43,1.91,2.23,2.59,2.89,.8,2.33-6.32,3.64-12.96,3.91-19.68,.07-1.66-2.64-2.08-2.95-.4l-3.34,18.64c-.28,1.56,1.91,2.77,2.74,1.16,3.55-6.87,4.94-14.47,6.22-22.02l-2.95-.4-1.37,20.6c-.11,1.69,2.56,2.04,2.95,.4l4.4-18.8-2.89-.8-2.81,13.33,2.89,.8c.74-3.74,1.48-7.47,2.22-11.21,.51-2.55,1.05-5.7,3.54-7.06,1.54-.84,.46-3.11-1.16-2.74-4.35,.99-7.81,4.14-9.39,8.28-.55,1.43,1.52,2.49,2.51,1.46l5.35-5.56c.77-.8,.45-2.21-.66-2.51-2.37-.63-4.95,.83-5.43,3.28-.29,1.49,1.36,2.47,2.51,1.46,1.66-1.46,3.1-3.1,4.37-4.9,.59-.83-.05-1.93-.9-2.2-1.38-.45-2.76-.27-4.01,.44-1.16,.65-.85,2.37,.36,2.74,2.13,.66,4.48-.3,5.49-2.29,.78-1.52-1.07-2.97-2.36-1.82l-3.37,3.02,2.51,1.46c.17-.71,.53-1.08,1.19-1.39l-2.26-1.3-.07,2.8c-.05,1.93,2.95,1.93,3,0l.07-2.8c.03-1.23-1.28-1.75-2.26-1.3-1.32,.61-2.23,1.78-2.57,3.18-.36,1.49,1.4,2.45,2.51,1.46l3.37-3.02-2.36-1.82c-.43,.84-1.2,1.2-2.1,.91l.36,2.74c.59-.33,1.07-.34,1.7-.13l-.9-2.2c-1.13,1.59-2.44,3.01-3.9,4.3l2.51,1.46c.17-.85,.86-1.42,1.74-1.19l-.66-2.51-5.35,5.56,2.51,1.46c1.21-3.17,4.02-5.44,7.29-6.19l-1.16-2.74c-2.87,1.56-4.03,4.72-4.69,7.74-.89,4.09-1.64,8.21-2.45,12.32-.37,1.88,2.49,2.69,2.89,.8l2.81-13.33c.4-1.88-2.45-2.69-2.89-.8l-4.4,18.8,2.95,.4,1.37-20.6c.11-1.66-2.66-2.08-2.95-.4-1.23,7.27-2.5,14.69-5.92,21.3l2.74,1.16,3.34-18.64-2.95-.4c-.27,6.47-1.56,12.81-3.81,18.89l2.89,.8c1.4-6.23,3.55-12.24,6.45-17.92,.88-1.72-1.71-3.24-2.59-1.51h0Z"/><path d="M72.22,160.88c-1.57,5.45-2.41,11.09-2.53,16.76-.04,1.78,2.39,1.92,2.95,.4,2.16-5.88,3-12.19,2.46-18.43-.16-1.9-2.92-1.96-3,0-.23,6.09,.05,12.19,.86,18.23,.1,.75,.49,1.36,1.3,1.47,.69,.09,1.51-.34,1.65-1.07l3.95-20.64-2.95-.4c-.68,5.34-1.71,10.64-3.03,15.86-.48,1.89,2.26,2.6,2.89,.8,2.63-7.45,3.95-15.32,3.93-23.22h-3c.13,4.72-1.06,9.3-3.48,13.36l2.74,1.16c2.16-5.26,3.98-10.65,5.46-16.15,.32-1.19-1.09-2.46-2.2-1.69-4.84,3.32-8.3,8.33-9.56,14.08-.36,1.67,1.8,2.6,2.74,1.16,2.08-3.18,4.14-6.38,6.18-9.59,1.67-2.62,3.56-5.52,2.04-8.65-.43-.9-1.71-.93-2.36-.3-4.72,4.52-8.15,10.23-9.95,16.52-.44,1.54,1.42,2.36,2.51,1.46,3.15-2.62,5.82-5.83,7.78-9.43,1.34-2.47,4.22-7.72,.2-9.27-.66-.26-1.32,.19-1.69,.69-2.09,2.84-3.56,6.08-4.35,9.52-.38,1.68,1.8,2.58,2.74,1.16,2.15-3.23,3.84-6.71,5.11-10.37,.52-1.49-1.48-2.41-2.51-1.46-2.16,2-3.96,4.33-5.34,6.92l2.59,1.51,2.06-4.09c.54-1.08-.14-2.14-1.3-2.26-2.2-.22-4.34,.99-5.34,2.95-.73,1.43,1.2,3.19,2.36,1.82l5.78-6.89-2.36-1.82-3,5.16c-.97,1.67,1.62,3.18,2.59,1.51l3-5.16c.83-1.43-1.23-3.16-2.36-1.82l-5.78,6.89,2.36,1.82c.57-1.11,1.52-1.59,2.75-1.46l-1.3-2.26-2.06,4.09c-.86,1.71,1.68,3.23,2.59,1.51,1.27-2.39,2.89-4.48,4.87-6.32l-2.51-1.46c-1.18,3.42-2.8,6.64-4.81,9.65l2.74,1.16c.73-3.21,2.09-6.15,4.05-8.8l-1.69,.69c-.35-.14-.06-.17-.14,.29-.05,.28-.07,.53-.15,.81-.18,.61-.45,1.21-.71,1.78-.64,1.41-1.39,2.77-2.23,4.07-1.66,2.55-3.72,4.8-6.07,6.74l2.51,1.46c1.66-5.81,4.81-11.02,9.17-15.19l-2.36-.3c.55,1.14-.16,2.5-.72,3.5-.73,1.3-1.58,2.54-2.39,3.8-1.69,2.65-3.4,5.28-5.11,7.91l2.74,1.16c1.09-4.97,3.97-9.39,8.18-12.29l-2.2-1.69c-1.47,5.49-3.29,10.88-5.46,16.15-.66,1.61,1.9,2.57,2.74,1.16,2.68-4.49,4.03-9.64,3.89-14.87-.05-1.93-3-1.94-3,0,.02,7.65-1.28,15.2-3.82,22.42l2.89,.8c1.39-5.49,2.42-11.05,3.14-16.66,.21-1.67-2.63-2.05-2.95-.4l-3.95,20.64,2.95,.4c-.81-6.05-1.09-12.14-.86-18.23h-3c.52,6.01-.27,11.97-2.35,17.63l2.95,.4c.11-5.42,.92-10.75,2.42-15.96,.53-1.86-2.36-2.65-2.89-.8h0Z"/><path d="M28.77,159.68c-.65,3.66-.91,7.45-.47,11.15,.31,2.55,1.59,5.41,4.52,5.49,.61,.02,1.32-.47,1.45-1.1,1.74-8.88,1.42-18.04-.99-26.77-.47-1.72-2.79-1.22-2.95,.4-.77,8.06-.78,16.16-.03,24.21,.16,1.67,2.38,2.06,2.95,.4,3.27-9.6,2.12-19.85,.88-29.7-.23-1.87-2.92-1.98-3,0l-.88,22.05c-.07,1.72,2.48,2,2.95,.4,1.84-6.27,2.46-12.84,1.82-19.33-.13-1.31-2.1-2.25-2.8-.76-2.22,4.79-3.22,10.02-2.77,15.29,.1,1.19,1.63,2.11,2.56,1.06,4.13-4.66,5.86-10.89,4.77-17.01-.09-.51-.58-.91-1.05-1.05-2.94-.86-5.27,1.62-6.47,4.03-1.62,3.24-2.81,6.74-3.69,10.26-.33,1.31,1.05,2.29,2.2,1.69,5.86-3,9.59-9.46,9.24-16.04-.04-.73-.66-1.61-1.5-1.5-3.42,.46-6.19,2.46-8.04,5.35-2.08,3.26-2.62,7.19-3.04,10.95-.11,1.03,1.04,1.62,1.9,1.45,7.5-1.57,12.51-9.58,10.93-17.01-.17-.79-1.1-1.25-1.85-1.05-1.62,.44-3.06,1.35-4.11,2.67-.93,1.16-2.07,3.15-1.18,4.62s2.92,1.23,4.24,.61,2.33-1.79,2.95-3.09c1.15-2.39,1.91-7.72-2.08-7.83s-5.49,4.59-5.14,7.71c.1,.87,.89,1.83,1.9,1.45,2-.77,4.35-1.85,4.73-4.22,.34-2.07-.99-4.18-3.19-4.24-.64-.02-1.29,.48-1.45,1.1l-.41,1.67c-.46,1.87,2.43,2.67,2.89,.8l.41-1.67-1.45,1.1c.43,.01,.19,.95,.05,1.17-.47,.74-1.61,1.1-2.38,1.39l1.9,1.45c-.15-1.31-.02-4.2,1.68-4.63,.65-.17,.53,.43,.5,.98-.04,.73-.21,1.49-.5,2.16-.25,.59-.61,1.17-1.1,1.59-.23,.19-.47,.37-.75,.47-.13,.05-.26,.08-.4,.1-.34,.03-.23,.23,.32,.62,.03,0,.45-.96,.51-1.07,.22-.34,.47-.64,.77-.91,.6-.55,1.3-.9,2.08-1.12l-1.85-1.05c1.25,5.91-3,12.09-8.84,13.31l1.9,1.45c.54-4.93,1.97-12.48,8.07-13.3l-1.5-1.5c.29,5.59-2.77,10.9-7.76,13.45l2.2,1.69c.68-2.69,1.53-5.33,2.63-7.88,.57-1.33,1.86-4.89,3.84-4.31l-1.05-1.05c.89,5.01-.62,10.29-3.99,14.09l2.56,1.06c-.4-4.73,.36-9.46,2.36-13.78l-2.8-.76c.62,6.26,.05,12.5-1.71,18.54l2.95,.4,.88-22.05h-3c1.2,9.58,2.41,19.56-.78,28.9l2.95,.4c-.75-8.06-.75-16.16,.03-24.21l-2.95,.4c2.26,8.2,2.62,16.82,.99,25.17l1.45-1.1c-1.66-.05-1.64-3.66-1.69-4.71-.12-2.73,.05-5.46,.53-8.14,.33-1.89-2.56-2.7-2.89-.8h0Z"/></svg>